<svg width="99" height="96" viewBox="0 0 99 96" fill="none" xmlns="http://www.w3.org/2000/svg">
<path d="M5.77035e-05 0V4.992C-0.00713553 9.82334 0.658224 14.6331 1.97935 19.281L4.87576 29.4676L26.9885 7.39808L23.2385 5.51709C16.0262 1.89777 8.06949 0.00959077 5.77035e-05 0Z" fill="white"/>
<path d="M65.125 5.57344L61.3618 7.44484L83.429 29.5731L86.3625 19.3961C87.6956 14.7518 88.3766 9.94443 88.3838 5.11188V0.119886C80.3132 0.107898 72.3492 1.9757 65.125 5.57344Z" fill="white"/>
<path d="M88.8597 54.261H98.6807C98.6807 61.0404 93.1852 66.5372 86.4045 66.5372H76.5835C76.5835 59.7565 82.0803 54.261 88.8597 54.261Z" fill="white"/>
<path d="M76.5835 66.5372H86.4045C93.1852 66.5372 98.6807 72.0327 98.6807 78.8133H88.8597C82.0803 78.8133 76.5835 73.3166 76.5835 66.5372Z" fill="white"/>
<path d="M76.5835 54.261H12.7474V61.6555C13.3264 71.6622 18.6553 80.7878 27.0868 86.2078C30.3596 88.3046 33.7152 90.2695 37.1523 92.1013C37.3022 92.1793 37.4472 92.268 37.5971 92.3459L44.5204 96L51.8861 91.8748L59.8021 87.4558L60.784 86.9008C69.9623 81.6654 75.8978 72.1705 76.5835 61.6267V54.261Z" fill="white"/>
<path d="M76.5835 54.261H12.7474V61.6555C13.3264 71.6622 18.6553 80.7878 27.0868 86.2078C30.3596 88.3046 33.7152 90.2695 37.1523 92.1013C37.3022 92.1793 37.4472 92.268 37.5971 92.3459L44.5204 96L51.8861 91.8748L59.8021 87.4558L60.784 86.9008C69.9623 81.6654 75.8978 72.1705 76.5835 61.6267V54.261Z" fill="white"/>
<path d="M55.9598 73.9029H33.3711C31.1401 73.9029 28.975 73.144 27.233 71.7497L9.06453 57.2065C6.73757 55.3435 5.38287 52.5239 5.38168 49.5423V31.3211C5.38168 28.716 6.41748 26.2176 8.25891 24.3761L22.1463 10.4887C23.9878 8.64609 26.4874 7.61148 29.0925 7.61148H60.2397C62.8448 7.61148 65.3432 8.64609 67.1846 10.4887L81.072 24.3761C82.9146 26.2176 83.9493 28.716 83.9493 31.3211V49.5423C83.9493 52.5239 82.5946 55.3435 80.2664 57.2065L62.0979 71.7474C60.356 73.1416 58.1908 73.9029 55.9598 73.9029Z" fill="white"/>
<path d="M65.535 34.6191C57.8456 34.7569 51.0469 39.6482 48.4718 46.8953H40.8603C38.2852 39.6482 31.4866 34.7569 23.796 34.6191C16.2372 34.7462 9.5213 39.4768 6.85506 46.5512C5.26539 50.5685 6.48702 55.1529 9.86537 57.8455L27.233 71.7497C28.975 73.144 31.1401 73.9029 33.3711 73.9029H55.9598C58.1908 73.9029 60.356 73.144 62.0979 71.7497L79.4764 57.8479C82.8547 55.1553 84.0763 50.5709 82.4867 46.5536C79.8192 39.4744 73.0985 34.7426 65.535 34.6191Z" fill="white"/>
<path d="M42.2102 37.0743H47.1207C49.8325 37.0743 52.0312 39.273 52.0312 41.9848C52.0312 44.6966 49.8325 46.8953 47.1207 46.8953H42.2102C39.4984 46.8953 37.2998 44.6966 37.2998 41.9848C37.2998 39.273 39.4984 37.0743 42.2102 37.0743Z" fill="white"/>
<path d="M52.0312 56.7162C52.0312 60.7839 48.7332 64.0819 44.6655 64.0819C40.5978 64.0819 37.2998 60.7839 37.2998 56.7162L44.6655 54.261L52.0312 56.7162Z" fill="white"/>
<path d="M32.3893 29.7086C32.3893 32.4204 30.1906 34.6191 27.4788 34.6191C24.767 34.6191 22.5683 32.4204 22.5683 29.7086C22.5683 26.9968 24.767 24.7981 27.4788 24.7981C30.1906 24.7981 32.3893 26.9968 32.3893 29.7086Z" fill="white"/>
<path d="M66.7626 29.7086C66.7626 32.4204 64.5639 34.6191 61.8521 34.6191C59.1403 34.6191 56.9417 32.4204 56.9417 29.7086C56.9417 26.9968 59.1403 24.7981 61.8521 24.7981C64.5639 24.7981 66.7626 26.9968 66.7626 29.7086Z" fill="white"/>
<path d="M25.0236 14.9772H29.934V19.8877H25.0236V14.9772Z" fill="white"/>
<path d="M59.3969 14.9772H64.3074V19.8877H59.3969V14.9772Z" fill="white"/>
<path d="M59.8093 47.9874L56.7259 52.6186C56.1708 53.4434 55.1758 53.8558 54.1999 53.6639L47.1207 52.2469V46.8953H42.2102V52.2469L35.1322 53.6639C34.1564 53.8594 33.1601 53.4458 32.6075 52.6186L29.5216 47.9874L25.436 50.7124L28.523 55.3411C30.175 57.8287 33.1685 59.0683 36.0973 58.4785L44.6655 56.7606L53.2348 58.4785C56.1624 59.0755 59.1607 57.8335 60.8091 55.3411L63.895 50.7124L59.8093 47.9874Z" fill="white"/>
<path d="M4.59453 5.62921V10.0358C4.58818 14.3005 5.17551 18.5462 6.34171 22.6491L8.89844 31.6411L28.4179 12.1597L25.1077 10.4993C18.7412 7.30442 11.7176 5.63768 4.59453 5.62921Z" fill="#F7A116"/>
<path d="M62.0819 10.549L58.76 12.2009L78.2393 31.7341L80.8288 22.7506C82.0056 18.6509 82.6067 14.4074 82.613 10.1415V5.73497C75.4889 5.72439 68.4589 7.37315 62.0819 10.549Z" fill="#F7A116"/>
<path d="M83.0333 53.5267H91.7025C91.7025 59.5111 86.8515 64.3632 80.866 64.3632H72.1968C72.1968 58.3778 77.0489 53.5267 83.0333 53.5267Z" fill="#FF405B"/>
<path d="M72.1968 64.3632H80.866C86.8515 64.3632 91.7025 69.2142 91.7025 75.1997H83.0333C77.0489 75.1997 72.1968 70.3476 72.1968 64.3632Z" fill="#E00826"/>
<path d="M72.1967 53.5267H15.8469V60.054C16.3581 68.8873 21.062 76.9427 28.5047 81.727C31.3937 83.5779 34.3558 85.3124 37.3898 86.9294C37.522 86.9982 37.6501 87.0765 37.7824 87.1453L43.8938 90.3708L50.3957 86.7294L57.3833 82.8287L58.25 82.3387C66.352 77.7173 71.5914 69.336 72.1967 60.0286V53.5267Z" fill="#348FD9"/>
<path d="M72.1967 53.5267H15.8469V60.054C16.3581 68.8873 21.062 76.9427 28.5047 81.727C31.3937 83.5779 34.3558 85.3124 37.3898 86.9294C37.522 86.9982 37.6501 87.0765 37.7824 87.1453L43.8938 90.3708L50.3957 86.7294L57.3833 82.8287L58.25 82.3387C66.352 77.7173 71.5914 69.336 72.1967 60.0286V53.5267Z" fill="#F5362A"/>
<path d="M53.9916 70.8651H34.052C32.0826 70.8651 30.1714 70.1953 28.6337 68.9645L12.5959 56.1269C10.5419 54.4823 9.34603 51.9933 9.34497 49.3615V33.2771C9.34497 30.9775 10.2593 28.7721 11.8848 27.1466L24.1436 14.8878C25.769 13.2613 27.9755 12.348 30.2751 12.348H57.7695C60.0691 12.348 62.2745 13.2613 63.9 14.8878L76.1588 27.1466C77.7853 28.7721 78.6986 30.9775 78.6986 33.2771V49.3615C78.6986 51.9933 77.5028 54.4823 75.4476 56.1269L59.4098 68.9624C57.8722 70.1931 55.961 70.8651 53.9916 70.8651Z" fill="#FFB531"/>
<path opacity="0.8" d="M62.444 36.1884C55.6564 36.3101 49.655 40.6277 47.3819 47.0249H40.663C38.3899 40.6277 32.3886 36.3101 25.5999 36.1884C18.9276 36.3005 12.9993 40.4764 10.6457 46.7211C9.24248 50.2673 10.3208 54.3141 13.303 56.6909L28.6339 68.9645C30.1715 70.1953 32.0827 70.8652 34.0521 70.8652H53.9917C55.9611 70.8652 57.8723 70.1953 59.41 68.9645L74.7504 56.693C77.7326 54.3162 78.8109 50.2695 77.4077 46.7233C75.0531 40.4743 69.1205 36.2974 62.444 36.1884Z" fill="#FDEED4"/>
<path d="M41.8544 38.3557H46.189C48.5827 38.3557 50.5236 40.2965 50.5236 42.6903C50.5236 45.084 48.5827 47.0249 46.189 47.0249H41.8544C39.4606 47.0249 37.5198 45.084 37.5198 42.6903C37.5198 40.2965 39.4606 38.3557 41.8544 38.3557Z" fill="#2E3E51"/>
<path d="M50.5236 55.694C50.5236 59.2847 47.6123 62.1959 44.0217 62.1959C40.431 62.1959 37.5198 59.2847 37.5198 55.694L44.0217 53.5267L50.5236 55.694Z" fill="#FF405B"/>
<path d="M23.6289 29.5359H34.1306V34.1304H23.6289V29.5359Z" fill="#2E3E51"/>
<path d="M63.5274 31.8538C63.5274 34.2475 61.5865 36.1884 59.1928 36.1884C56.799 36.1884 54.8582 34.2475 54.8582 31.8538C54.8582 29.46 56.799 27.5192 59.1928 27.5192C61.5865 27.5192 63.5274 29.46 63.5274 31.8538Z" fill="#2E3E51"/>
<path d="M26.6833 18.8499H31.018V23.1845H26.6833V18.8499Z" fill="#FDEED4"/>
<path d="M57.0256 18.8499H61.3602V23.1845H57.0256V18.8499Z" fill="#FDEED4"/>
<path d="M57.3898 47.9888L54.668 52.0769C54.178 52.805 53.2997 53.169 52.4383 52.9997L46.1893 51.7488V47.0248H41.8547V51.7488L35.6068 52.9997C34.7453 53.1722 33.8659 52.8071 33.3781 52.0769L30.6541 47.9888L27.0476 50.3943L29.7726 54.4802C31.2309 56.676 33.8733 57.7703 36.4586 57.2496L44.022 55.7331L51.5864 57.2496C54.1706 57.7766 56.8173 56.6803 58.2724 54.4802L60.9963 50.3943L57.3898 47.9888Z" fill="#2E3E51"/>
</svg>
